<?xml version="1.0" encoding="UTF-8" standalone="no"?>
<!DOCTYPE svg PUBLIC "-//W3C//DTD SVG 1.1//EN" "http://www.w3.org/Graphics/SVG/1.1/DTD/svg11.dtd">
<svg xmlns="http://www.w3.org/2000/svg" version="1.1" viewBox="0 0 567 972">
<path fill="rgb(12,39,63)" fill-opacity="1.000" d="M 0.00 0.00 Q 283.50 0.00 567.00 0.00 Q 567.00 486.00 567.00 972.00 Q 283.50 972.00 0.00 972.00 Q 0.00 486.00 0.00 0.00 Z M 312.82 112.44 L 312.51 81.24 A 1.10 1.06 -70.6 0 0 312.13 80.41 Q 310.41 78.91 308.14 79.07 Q 305.89 79.23 305.84 79.23 Q 296.45 79.23 289.56 84.06 Q 279.77 90.94 281.33 103.74 Q 282.57 113.79 289.81 118.94 Q 299.52 125.83 311.71 125.12 Q 318.63 124.71 323.79 122.89 Q 329.74 120.80 334.40 116.15 Q 339.60 110.98 340.50 103.25 Q 342.16 89.02 331.88 80.08 A 0.74 0.74 52.3 0 0 331.05 79.97 Q 327.81 81.54 325.91 83.56 Q 324.32 85.24 325.57 87.18 Q 326.94 89.30 327.93 91.21 Q 329.06 93.37 329.54 95.56 Q 332.25 107.87 319.69 111.94 Q 317.04 112.79 313.31 112.92 A 0.48 0.47 88.9 0 1 312.82 112.44 Z M 325.58 134.33 Q 324.43 136.10 325.94 137.57 Q 330.18 141.71 330.17 147.02 Q 330.16 150.89 327.83 153.89 Q 325.42 156.99 321.44 158.19 Q 312.81 160.78 303.49 159.07 Q 299.79 158.39 296.80 156.41 Q 293.67 154.34 292.48 151.04 Q 290.16 144.63 295.02 137.88 Q 296.94 135.21 294.47 133.65 L 289.44 130.48 A 0.71 0.64 -49.0 0 0 288.63 130.58 Q 279.41 139.02 281.25 151.00 Q 283.23 163.86 294.31 168.69 Q 306.90 174.18 320.12 171.08 Q 329.50 168.89 334.76 163.73 Q 341.40 157.21 340.70 147.05 Q 340.34 141.83 338.23 137.74 Q 335.98 133.37 331.96 130.11 A 0.81 0.80 51.8 0 0 331.10 130.00 Q 327.24 131.78 325.58 134.33 Z M 288.24 213.53 L 284.58 214.23 Q 282.07 214.72 282.00 216.98 L 281.79 224.07 A 0.73 0.65 1.1 0 0 282.52 224.75 L 339.13 224.75 A 0.87 0.87 -45.0 0 0 340.00 223.88 L 340.00 213.17 A 0.67 0.67 0.0 0 0 339.33 212.50 L 298.74 212.50 A 1.55 1.52 -26.6 0 1 297.84 212.21 Q 292.37 208.25 291.98 201.80 Q 291.83 199.27 292.92 197.39 Q 294.19 195.23 296.40 194.16 Q 298.23 193.27 302.76 193.18 Q 320.58 192.83 339.22 193.01 A 0.77 0.77 0.4 0 0 340.00 192.24 L 340.00 181.43 A 0.67 0.67 45.0 0 0 339.33 180.76 Q 320.68 180.59 302.70 180.92 Q 297.73 181.01 294.87 181.70 Q 290.52 182.76 287.56 184.81 Q 279.69 190.28 281.43 200.72 Q 282.63 207.90 288.43 212.77 Q 289.13 213.35 288.24 213.53 Z M 334.43 247.00 L 337.65 246.09 Q 340.00 245.43 340.00 242.98 L 340.00 237.27 A 0.52 0.52 90.0 0 0 339.48 236.75 Q 323.90 236.75 308.53 236.75 Q 308.47 236.75 305.47 236.70 Q 299.06 236.59 293.56 238.31 Q 285.97 240.70 282.85 247.05 Q 280.19 252.47 281.22 259.75 Q 282.54 269.04 289.70 275.85 A 0.77 0.65 50.9 0 0 290.53 276.01 L 295.70 273.18 Q 297.78 272.04 296.70 269.51 Q 295.81 267.42 294.21 265.02 Q 291.25 260.58 292.10 255.27 Q 292.69 251.62 294.81 250.56 Q 299.49 248.24 305.90 248.56 A 0.89 0.89 1.3 0 1 306.75 249.45 Q 306.72 257.55 309.53 265.09 Q 312.40 272.79 316.89 276.04 Q 322.84 280.34 331.31 277.81 Q 335.58 276.54 338.09 273.19 Q 340.28 270.28 340.72 265.87 Q 341.68 256.27 333.97 248.86 Q 332.57 247.52 334.43 247.00 Z M 287.66 319.77 Q 289.06 321.02 287.20 321.29 Q 282.01 322.05 281.87 325.75 Q 281.75 328.75 281.75 331.75 A 0.50 0.50 -45.0 0 0 282.25 332.25 L 339.44 332.25 A 0.56 0.56 0.0 0 0 340.00 331.69 L 340.00 320.66 A 0.66 0.66 -45.0 0 0 339.34 320.00 L 298.91 320.00 A 2.45 2.41 -22.8 0 1 297.23 319.33 Q 294.55 316.76 293.14 313.89 Q 291.54 310.64 292.07 307.40 Q 292.72 303.41 296.33 301.71 Q 298.33 300.77 302.82 300.68 Q 320.50 300.33 339.16 300.51 A 0.80 0.77 0.0 0 0 339.97 299.73 L 339.84 288.94 A 0.54 0.51 0.6 0 0 339.31 288.43 Q 323.91 288.11 308.50 288.25 Q 298.86 287.79 293.25 289.75 Q 279.21 294.67 281.38 308.49 Q 281.88 311.72 283.56 314.61 Q 285.40 317.76 287.66 319.77 Z M 273.5099 352.0305 A 8.74 7.66 0.2 0 0 264.7968 344.3401 A 8.74 7.66 0.2 0 0 256.0301 351.9695 A 8.74 7.66 0.2 0 0 264.7433 359.6599 A 8.74 7.66 0.2 0 0 273.5099 352.0305 Z M 339.99 346.33 A 0.32 0.32 0 0 0 339.67 346.01 L 282.07 346.01 A 0.32 0.32 0 0 0 281.75 346.33 L 281.75 357.93 A 0.32 0.32 0 0 0 282.07 358.25 L 339.67 358.25 A 0.32 0.32 0 0 0 339.99 357.93 L 339.99 346.33 Z M 297.49 383.72 Q 292.08 371.62 278.50 371.82 Q 271.40 371.92 266.28 375.89 Q 262.68 378.69 260.51 383.61 Q 258.40 388.40 258.25 393.25 Q 257.84 407.00 258.01 421.63 A 0.88 0.88 89.7 0 0 258.89 422.50 L 339.32 422.50 A 0.67 0.67 -89.6 0 0 339.99 421.84 Q 340.13 409.49 339.91 397.66 Q 339.74 388.94 338.11 384.55 Q 334.50 374.86 325.01 371.43 Q 316.69 368.42 309.37 370.74 Q 300.73 373.48 297.82 383.70 Q 297.69 384.17 297.49 383.72 Z M 289.44 475.81 Q 294.66 480.00 301.16 481.47 Q 307.04 482.80 313.88 482.43 Q 321.03 482.05 327.44 478.94 Q 340.27 472.71 340.65 458.00 Q 340.92 447.65 334.69 441.31 Q 329.09 435.63 321.02 433.82 Q 314.71 432.41 307.44 432.82 Q 300.20 433.24 294.06 436.31 Q 280.63 443.04 281.20 458.93 Q 281.57 469.52 289.44 475.81 Z M 299.00 504.46 Q 293.29 500.23 294.56 493.06 Q 296.38 489.19 292.56 488.69 Q 288.19 487.86 283.75 487.46 Q 283.00 486.87 282.56 487.56 Q 280.67 490.57 280.88 493.91 Q 281.06 496.73 282.97 499.80 Q 286.04 504.73 291.41 507.18 Q 292.76 507.80 291.26 508.00 L 284.17 508.94 Q 282.02 509.23 281.96 511.36 L 281.76 518.74 A 0.53 0.49 1.0 0 0 282.29 519.25 L 339.48 519.25 A 0.52 0.52 0.0 0 0 340.00 518.73 L 340.00 507.91 A 0.66 0.66 -45.0 0 0 339.34 507.25 Q 323.63 507.25 308.25 507.25 Q 302.33 507.25 299.00 504.46 Z M 333.00 567.81 A 0.81 0.81 49.5 0 1 334.37 567.92 Q 339.86 578.45 351.43 573.44 Q 353.54 572.53 354.93 570.70 Q 358.40 566.14 359.61 560.76 Q 360.68 556.03 360.38 550.70 Q 360.09 545.51 358.00 540.75 Q 354.50 532.79 346.96 529.78 Q 342.25 527.90 337.86 528.47 Q 332.49 529.15 329.49 533.52 Q 327.53 536.36 326.53 541.85 Q 325.72 546.25 325.60 550.75 Q 325.46 556.23 324.94 557.44 Q 322.45 563.22 318.40 558.81 A 1.10 1.05 -64.2 0 1 318.12 557.94 Q 318.78 551.88 318.25 549.50 Q 314.07 530.67 293.96 533.84 A 0.98 0.98 -14.0 0 1 292.89 533.20 Q 292.56 532.25 292.40 530.73 Q 291.90 526.18 287.25 527.00 Q 285.78 526.96 284.31 527.03 A 0.54 0.53 -1.7 0 0 283.80 527.56 L 283.76 540.40 Q 283.75 541.46 283.33 542.37 Q 280.72 548.05 280.91 553.84 Q 281.10 559.76 284.23 564.65 Q 289.03 572.14 298.36 572.65 Q 303.45 572.92 307.43 571.17 Q 311.75 569.26 314.87 565.20 A 0.59 0.58 -43.5 0 1 315.81 565.22 Q 321.15 572.96 329.95 570.11 Q 331.71 569.54 333.00 567.81 Z M 319.81 625.93 L 319.93 597.45 A 0.71 0.70 -9.1 0 1 320.42 596.78 Q 335.90 591.69 336.31 591.56 Q 340.05 590.43 340.02 586.50 Q 340.00 582.12 340.00 577.78 A 0.56 0.56 80.4 0 0 339.26 577.25 L 258.61 604.72 A 0.90 0.90 -9.6 0 0 258.00 605.57 L 258.00 617.72 A 1.11 1.09 9.9 0 0 258.74 618.75 L 339.49 646.25 A 0.39 0.39 -80.8 0 0 340.00 645.88 Q 340.00 642.27 340.00 638.76 Q 340.00 638.70 340.08 637.24 Q 340.25 633.93 337.44 632.06 Q 337.07 631.82 320.28 626.58 A 0.67 0.65 -81.5 0 1 319.81 625.93 Z M 227.95 749.57 Q 219.33 752.06 214.19 759.44 Q 207.45 769.12 208.87 780.99 Q 210.21 792.14 218.17 798.52 Q 221.59 801.27 229.55 804.23 Q 235.57 806.47 241.62 808.46 Q 241.99 808.58 241.65 808.76 Q 224.22 818.38 223.25 838.50 Q 222.75 848.80 226.59 856.95 Q 228.67 861.36 231.90 864.32 Q 235.31 867.45 239.76 869.23 Q 260.26 877.38 280.85 885.29 Q 285.99 887.26 290.75 886.50 Q 298.54 885.25 304.15 878.92 Q 311.21 870.97 313.08 860.96 Q 314.56 853.04 313.27 846.02 Q 311.92 838.59 307.01 831.99 Q 306.44 831.22 307.31 831.62 Q 316.27 835.70 324.34 832.77 Q 331.62 830.13 336.75 822.89 Q 342.52 814.74 342.09 803.76 Q 341.79 795.96 337.51 789.35 Q 337.09 788.72 337.79 789.02 Q 348.23 793.56 356.69 789.19 Q 363.77 785.53 368.44 776.55 Q 374.45 764.98 371.29 750.99 Q 369.33 742.28 363.15 737.02 Q 359.70 734.07 350.01 730.50 Q 334.87 724.91 319.90 719.56 Q 319.03 719.25 319.92 719.02 Q 328.94 716.70 334.17 709.14 Q 340.00 700.71 340.25 691.06 Q 340.49 681.86 336.31 674.62 Q 331.76 666.74 322.50 663.25 Q 311.99 659.29 287.45 650.61 Q 277.10 646.94 275.07 646.65 Q 268.23 645.65 261.81 649.06 Q 252.32 654.11 248.56 664.77 Q 242.99 680.59 252.13 694.54 Q 252.50 695.11 251.87 694.88 Q 243.98 692.01 236.18 689.24 Q 227.50 686.17 225.89 685.90 Q 220.25 684.97 214.82 687.40 Q 212.96 688.23 210.47 690.03 Q 207.40 692.25 206.56 693.31 Q 193.88 709.47 200.00 729.00 Q 202.63 737.40 210.56 742.44 Q 213.61 744.37 227.97 749.28 Q 228.43 749.43 227.95 749.57 Z"/>
<path fill="rgb(243,247,249)" fill-opacity="1.000" d="M 312.51 81.24 L 312.82 112.44 A 0.48 0.47 88.9 0 0 313.31 112.92 Q 317.04 112.79 319.69 111.94 Q 332.25 107.87 329.54 95.56 Q 329.06 93.37 327.93 91.21 Q 326.94 89.30 325.57 87.18 Q 324.32 85.24 325.91 83.56 Q 327.81 81.54 331.05 79.97 A 0.74 0.74 52.3 0 1 331.88 80.08 Q 342.16 89.02 340.50 103.25 Q 339.60 110.98 334.40 116.15 Q 329.74 120.80 323.79 122.89 Q 318.63 124.71 311.71 125.12 Q 299.52 125.83 289.81 118.94 Q 282.57 113.79 281.33 103.74 Q 279.77 90.94 289.56 84.06 Q 296.45 79.23 305.84 79.23 Q 305.89 79.23 308.14 79.07 Q 310.41 78.91 312.13 80.41 A 1.10 1.06 -70.6 0 1 312.51 81.24 Z M 307.19 80.66 Q 304.05 80.64 306.29 82.93 A 1.35 1.35 0.0 0 0 308.21 82.93 Q 311.33 79.76 308.65 80.47 Q 307.92 80.66 307.19 80.66 Z M 291.84 97.00 Q 289.99 101.20 291.99 105.34 Q 293.55 108.55 296.81 110.40 Q 299.86 112.13 303.74 112.55 A 0.46 0.45 3.4 0 0 304.25 112.10 L 304.25 90.51 A 0.51 0.51 -0.6 0 0 303.73 90.00 Q 299.72 90.05 296.57 91.80 Q 293.32 93.61 291.84 97.00 Z M 337.12 104.02 Q 337.90 106.18 335.47 104.85 Q 333.10 103.55 334.10 105.54 Q 334.22 105.77 334.60 106.29 Q 335.49 107.49 334.05 107.28 A 1.66 1.18 63.4 0 1 333.22 106.84 Q 331.23 104.90 331.28 107.19 A 1.10 0.72 -81.9 0 0 331.67 108.03 L 334.27 109.59 A 0.77 0.53 -49.7 0 0 335.08 109.37 L 338.09 106.32 Q 339.34 105.05 338.82 103.48 Q 337.83 100.46 336.16 101.46 A 0.83 0.77 -20.0 0 0 335.76 102.25 Q 335.86 102.98 336.48 103.36 A 1.49 0.78 18.5 0 1 337.12 104.02 Z"/>
<path fill="rgb(230,234,236)" fill-opacity="1.000" d="M 308.21 82.93 A 1.35 1.35 0.0 0 1 306.29 82.93 Q 304.05 80.64 307.19 80.66 Q 307.92 80.66 308.65 80.47 Q 311.33 79.76 308.21 82.93 Z"/>
<path fill="rgb(12,40,64)" fill-opacity="1.000" d="M 303.73 90.00 A 0.51 0.51 -0.6 0 1 304.25 90.51 L 304.25 112.10 A 0.46 0.45 3.4 0 1 303.74 112.55 Q 299.86 112.13 296.81 110.40 Q 293.55 108.55 291.99 105.34 Q 289.99 101.20 291.84 97.00 Q 293.32 93.61 296.57 91.80 Q 299.72 90.05 303.73 90.00 Z"/>
<path fill="rgb(230,234,236)" fill-opacity="1.000" d="M 338.82 103.48 Q 339.34 105.05 338.09 106.32 L 335.08 109.37 A 0.77 0.53 -49.7 0 1 334.27 109.59 L 331.67 108.03 A 1.10 0.72 -81.9 0 1 331.28 107.19 Q 331.23 104.90 333.22 106.84 A 1.66 1.18 63.4 0 0 334.05 107.28 Q 335.49 107.49 334.60 106.29 Q 334.22 105.77 334.10 105.54 Q 333.10 103.55 335.47 104.85 Q 337.90 106.18 337.12 104.02 A 1.49 0.78 18.5 0 0 336.48 103.36 Q 335.86 102.98 335.76 102.25 A 0.83 0.77 -20.0 0 1 336.16 101.46 Q 337.83 100.46 338.82 103.48 Z"/>
<path fill="rgb(243,247,249)" fill-opacity="1.000" d="M 331.96 130.11 Q 335.98 133.37 338.23 137.74 Q 340.34 141.83 340.70 147.05 Q 341.40 157.21 334.76 163.73 Q 329.50 168.89 320.12 171.08 Q 306.90 174.18 294.31 168.69 Q 283.23 163.86 281.25 151.00 Q 279.41 139.02 288.63 130.58 A 0.71 0.64 -49.0 0 1 289.44 130.48 L 294.47 133.65 Q 296.94 135.21 295.02 137.88 Q 290.16 144.63 292.48 151.04 Q 293.67 154.34 296.80 156.41 Q 299.79 158.39 303.49 159.07 Q 312.81 160.78 321.44 158.19 Q 325.42 156.99 327.83 153.89 Q 330.16 150.89 330.17 147.02 Q 330.18 141.71 325.94 137.57 Q 324.43 136.10 325.58 134.33 Q 327.24 131.78 331.10 130.00 A 0.81 0.80 51.8 0 1 331.96 130.11 Z"/>
<path fill="rgb(243,247,249)" fill-opacity="1.000" d="M 339.33 180.76 A 0.67 0.67 45.0 0 1 340.00 181.43 L 340.00 192.24 A 0.77 0.77 0.4 0 1 339.22 193.01 Q 320.58 192.83 302.76 193.18 Q 298.23 193.27 296.40 194.16 Q 294.19 195.23 292.92 197.39 Q 291.83 199.27 291.98 201.80 Q 292.37 208.25 297.84 212.21 A 1.55 1.52 -26.6 0 0 298.74 212.50 L 339.33 212.50 A 0.67 0.67 0.2 0 1 340.00 213.17 L 340.00 223.88 A 0.87 0.87 45.0 0 1 339.13 224.75 L 282.52 224.75 A 0.73 0.65 1.1 0 1 281.79 224.07 L 282.00 216.98 Q 282.07 214.72 284.58 214.23 L 288.24 213.53 Q 289.13 213.35 288.43 212.77 Q 282.63 207.90 281.43 200.72 Q 279.69 190.28 287.56 184.81 Q 290.52 182.76 294.87 181.70 Q 297.73 181.01 302.70 180.92 Q 320.68 180.59 339.33 180.76 Z M 284.01 199.80 Q 284.03 200.24 283.81 200.61 Q 283.49 201.16 283.48 201.51 Q 283.40 206.04 286.44 202.44 Q 287.80 201.09 289.06 199.63 Q 289.47 199.16 289.53 198.59 Q 289.81 196.34 287.79 198.54 Q 285.87 200.62 285.94 198.63 Q 285.96 198.20 286.31 197.46 Q 286.84 196.35 286.45 195.21 A 0.52 0.50 -20.2 0 0 285.78 194.92 Q 282.83 196.02 282.31 198.06 Q 281.76 200.21 283.48 199.52 A 0.39 0.34 -12.6 0 1 284.01 199.80 Z M 291.7710 212.2359 A 1.63 1.05 129.6 0 0 293.6190 211.6493 A 1.63 1.05 129.6 0 0 293.8490 209.7241 A 1.63 1.05 129.6 0 0 292.0009 210.3107 A 1.63 1.05 129.6 0 0 291.7710 212.2359 Z M 309.63 222.34 Q 307.96 223.94 310.74 223.66 Q 312.41 223.49 312.53 222.27 Q 312.62 221.41 311.74 220.65 Q 308.24 217.60 305.12 221.42 A 1.25 1.20 -29.0 0 0 304.84 222.32 Q 305.04 224.76 306.77 222.28 Q 308.20 220.23 309.67 221.64 A 0.52 0.46 -45.0 0 1 309.63 222.34 Z"/>
<path fill="rgb(230,234,236)" fill-opacity="1.000" d="M 286.45 195.21 Q 286.84 196.35 286.31 197.46 Q 285.96 198.20 285.94 198.63 Q 285.87 200.62 287.79 198.54 Q 289.81 196.34 289.53 198.59 Q 289.47 199.16 289.06 199.63 Q 287.80 201.09 286.44 202.44 Q 283.40 206.04 283.48 201.51 Q 283.49 201.16 283.81 200.61 Q 284.03 200.24 284.01 199.80 A 0.39 0.34 -12.6 0 0 283.48 199.52 Q 281.76 200.21 282.31 198.06 Q 282.83 196.02 285.78 194.92 A 0.52 0.50 -20.2 0 1 286.45 195.21 Z"/>
<ellipse fill="rgb(230,234,236)" fill-opacity="1.000" cx="0" cy="0" rx="1.63" ry="1.05" transform="translate(292.81,210.98) rotate(129.6)"/>
<path fill="rgb(230,234,236)" fill-opacity="1.000" d="M 312.53 222.27 Q 312.41 223.49 310.74 223.66 Q 307.96 223.94 309.63 222.34 A 0.52 0.46 -45.0 0 0 309.67 221.64 Q 308.20 220.23 306.77 222.28 Q 305.04 224.76 304.84 222.32 A 1.25 1.20 -29.0 0 1 305.12 221.42 Q 308.24 217.60 311.74 220.65 Q 312.62 221.41 312.53 222.27 Z"/>
<path fill="rgb(243,247,249)" fill-opacity="1.000" d="M 308.53 236.75 Q 323.90 236.75 339.48 236.75 A 0.52 0.52 -90.0 0 1 340.00 237.27 L 340.00 242.98 Q 340.00 245.43 337.65 246.09 L 334.43 247.00 Q 332.57 247.52 333.97 248.86 Q 341.68 256.27 340.72 265.87 Q 340.28 270.28 338.09 273.19 Q 335.58 276.54 331.31 277.81 Q 322.84 280.34 316.89 276.04 Q 312.40 272.79 309.53 265.09 Q 306.72 257.55 306.75 249.45 A 0.89 0.89 1.3 0 0 305.90 248.56 Q 299.49 248.24 294.81 250.56 Q 292.69 251.62 292.10 255.27 Q 291.25 260.58 294.21 265.02 Q 295.81 267.42 296.70 269.51 Q 297.78 272.04 295.70 273.18 L 290.53 276.01 A 0.77 0.65 50.9 0 1 289.70 275.85 Q 282.54 269.04 281.22 259.75 Q 280.19 252.47 282.85 247.05 Q 285.97 240.70 293.56 238.31 Q 299.06 236.59 305.47 236.70 Q 308.47 236.75 308.53 236.75 Z M 320.69 265.81 Q 325.95 268.57 329.03 265.51 Q 331.45 263.12 331.09 258.90 Q 330.64 253.60 326.55 250.02 Q 324.98 248.65 322.63 248.52 Q 319.28 248.34 315.93 248.64 A 0.54 0.54 -2.3 0 0 315.43 249.18 Q 315.36 254.72 317.10 259.93 Q 317.99 262.62 318.26 263.19 Q 319.11 264.99 320.69 265.81 Z"/>
<path fill="rgb(12,40,64)" fill-opacity="1.000" d="M 326.55 250.02 Q 330.64 253.60 331.09 258.90 Q 331.45 263.12 329.03 265.51 Q 325.95 268.57 320.69 265.81 Q 319.11 264.99 318.26 263.19 Q 317.99 262.62 317.10 259.93 Q 315.36 254.72 315.43 249.18 A 0.54 0.54 -2.3 0 1 315.93 248.64 Q 319.28 248.34 322.63 248.52 Q 324.98 248.65 326.55 250.02 Z"/>
<path fill="rgb(243,247,249)" fill-opacity="1.000" d="M 308.50 288.25 Q 323.91 288.11 339.31 288.43 A 0.54 0.51 0.6 0 1 339.84 288.94 L 339.97 299.73 A 0.80 0.77 0.0 0 1 339.16 300.51 Q 320.50 300.33 302.82 300.68 Q 298.33 300.77 296.33 301.71 Q 292.72 303.41 292.07 307.40 Q 291.54 310.64 293.14 313.89 Q 294.55 316.76 297.23 319.33 A 2.45 2.41 -22.8 0 0 298.91 320.00 L 339.34 320.00 A 0.66 0.66 45.0 0 1 340.00 320.66 L 340.00 331.69 A 0.56 0.56 0.0 0 1 339.44 332.25 L 282.25 332.25 A 0.50 0.50 45.0 0 1 281.75 331.75 Q 281.75 328.75 281.87 325.75 Q 282.01 322.05 287.20 321.29 Q 289.06 321.02 287.66 319.77 Q 285.40 317.76 283.56 314.61 Q 281.88 311.72 281.38 308.49 Q 279.21 294.67 293.25 289.75 Q 298.86 287.79 308.50 288.25 Z"/>
<ellipse fill="rgb(243,247,249)" fill-opacity="1.000" cx="0" cy="0" rx="8.74" ry="7.66" transform="translate(264.77,352.00) rotate(0.2)"/>
<path fill="rgb(243,247,249)" fill-opacity="1.000" d="M 339.99 357.93 A 0.32 0.32 0 0 1 339.67 358.25 L 282.07 358.25 A 0.32 0.32 0 0 1 281.75 357.93 L 281.75 346.33 A 0.32 0.32 0 0 1 282.07 346.01 L 339.67 346.01 A 0.32 0.32 0 0 1 339.99 346.33 L 339.99 357.93 Z M 290.40 350.53 Q 288.76 351.05 287.51 349.70 A 1.15 0.81 59.9 0 0 286.69 349.32 Q 285.69 349.43 285.85 350.31 Q 285.95 350.87 286.56 351.37 Q 290.55 354.60 293.31 350.31 Q 294.99 347.71 292.43 347.67 A 0.54 0.49 -88.1 0 0 291.94 348.18 Q 291.90 348.84 291.63 349.44 Q 291.26 350.26 290.40 350.53 Z M 291.87 355.15 Q 292.23 355.65 293.19 355.19 Q 295.36 354.14 297.47 351.47 Q 297.73 351.13 297.72 350.83 Q 297.70 350.31 297.19 350.24 Q 296.82 350.19 296.39 350.52 Q 294.07 352.26 292.03 354.33 A 0.74 0.54 -42.7 0 0 291.87 355.15 Z"/>
<path fill="rgb(230,234,236)" fill-opacity="1.000" d="M 293.31 350.31 Q 290.55 354.60 286.56 351.37 Q 285.95 350.87 285.85 350.31 Q 285.69 349.43 286.69 349.32 A 1.15 0.81 59.9 0 1 287.51 349.70 Q 288.76 351.05 290.40 350.53 Q 291.26 350.26 291.63 349.44 Q 291.90 348.84 291.94 348.18 A 0.54 0.49 -88.1 0 1 292.43 347.67 Q 294.99 347.71 293.31 350.31 Z"/>
<path fill="rgb(230,234,236)" fill-opacity="1.000" d="M 297.19 350.24 Q 297.70 350.31 297.72 350.83 Q 297.73 351.13 297.47 351.47 Q 295.36 354.14 293.19 355.19 Q 292.23 355.65 291.87 355.15 A 0.74 0.54 -42.7 0 1 292.03 354.33 Q 294.07 352.26 296.39 350.52 Q 296.82 350.19 297.19 350.24 Z"/>
<path fill="rgb(243,247,249)" fill-opacity="1.000" d="M 325.01 371.43 Q 334.50 374.86 338.11 384.55 Q 339.74 388.94 339.91 397.66 Q 340.13 409.49 339.99 421.84 A 0.67 0.67 -89.6 0 1 339.32 422.50 L 258.89 422.50 A 0.88 0.88 89.7 0 1 258.01 421.63 Q 257.84 407.00 258.25 393.25 Q 258.40 388.40 260.51 383.61 Q 262.68 378.69 266.28 375.89 Q 271.40 371.92 278.50 371.82 Q 292.08 371.62 297.49 383.72 Q 297.69 384.17 297.82 383.70 Q 300.73 373.48 309.37 370.74 Q 316.69 368.42 325.01 371.43 Z M 319.19 378.06 Q 320.71 378.83 320.31 376.94 Q 320.08 375.83 321.19 376.06 Q 323.42 376.53 321.56 378.81 Q 319.97 380.78 317.96 379.48 Q 317.71 379.31 317.34 378.74 Q 316.88 378.01 316.15 378.45 A 0.55 0.50 58.9 0 0 316.00 379.19 Q 316.92 380.69 318.62 381.67 Q 320.35 382.66 321.82 381.31 Q 325.89 377.55 321.56 374.19 Q 319.89 372.88 318.44 375.19 Q 317.24 377.08 319.19 378.06 Z M 323.31 384.94 Q 318.80 382.10 313.50 382.99 Q 304.90 384.42 304.32 393.25 Q 303.86 400.24 304.02 408.26 A 1.01 1.00 89.4 0 0 305.02 409.25 L 327.69 409.19 A 0.52 0.52 -88.9 0 0 328.21 408.69 Q 328.44 401.46 328.12 394.24 Q 327.83 387.77 323.31 384.94 Z M 288.56 386.69 Q 282.68 383.37 275.77 386.04 Q 271.73 387.60 271.00 390.75 Q 269.15 398.75 269.85 408.41 A 0.92 0.91 87.6 0 0 270.76 409.25 L 292.83 409.25 A 0.61 0.61 -88.0 0 0 293.44 408.68 Q 293.96 401.01 292.88 394.17 Q 292.46 391.46 291.67 389.97 Q 290.51 387.79 288.56 386.69 Z"/>
<path fill="rgb(230,234,236)" fill-opacity="1.000" d="M 321.56 374.19 Q 325.89 377.55 321.82 381.31 Q 320.35 382.66 318.62 381.67 Q 316.92 380.69 316.00 379.19 A 0.55 0.50 58.9 0 1 316.15 378.45 Q 316.88 378.01 317.34 378.74 Q 317.71 379.31 317.96 379.48 Q 319.97 380.78 321.56 378.81 Q 323.42 376.53 321.19 376.06 Q 320.08 375.83 320.31 376.94 Q 320.71 378.83 319.19 378.06 Q 317.24 377.08 318.44 375.19 Q 319.89 372.88 321.56 374.19 Z"/>
<path fill="rgb(12,40,64)" fill-opacity="1.000" d="M 323.31 384.94 Q 327.83 387.77 328.12 394.24 Q 328.44 401.46 328.21 408.69 A 0.52 0.52 -88.9 0 1 327.69 409.19 L 305.02 409.25 A 1.01 1.00 89.4 0 1 304.02 408.26 Q 303.86 400.24 304.32 393.25 Q 304.90 384.42 313.50 382.99 Q 318.80 382.10 323.31 384.94 Z"/>
<path fill="rgb(12,40,64)" fill-opacity="1.000" d="M 288.56 386.69 Q 290.51 387.79 291.67 389.97 Q 292.46 391.46 292.88 394.17 Q 293.96 401.01 293.44 408.68 A 0.61 0.61 -88.0 0 1 292.83 409.25 L 270.76 409.25 A 0.92 0.91 87.6 0 1 269.85 408.41 Q 269.15 398.75 271.00 390.75 Q 271.73 387.60 275.77 386.04 Q 282.68 383.37 288.56 386.69 Z"/>
<path fill="rgb(243,247,249)" fill-opacity="1.000" d="M 321.02 433.82 Q 329.09 435.63 334.69 441.31 Q 340.92 447.65 340.65 458.00 Q 340.27 472.71 327.44 478.94 Q 321.03 482.05 313.88 482.43 Q 307.04 482.80 301.16 481.47 Q 294.66 480.00 289.44 475.81 Q 281.57 469.52 281.20 458.93 Q 280.63 443.04 294.06 436.31 Q 300.20 433.24 307.44 432.82 Q 314.71 432.41 321.02 433.82 Z M 296.08 466.12 Q 299.63 468.74 304.50 469.50 Q 313.91 470.96 322.44 468.08 Q 329.15 465.81 329.94 459.44 Q 331.20 449.34 321.16 446.64 Q 310.45 443.76 299.83 446.89 Q 293.42 448.78 292.00 455.00 Q 290.42 461.93 296.08 466.12 Z"/>
<path fill="rgb(12,40,64)" fill-opacity="1.000" d="M 321.16 446.64 Q 331.20 449.34 329.94 459.44 Q 329.15 465.81 322.44 468.08 Q 313.91 470.96 304.50 469.50 Q 299.63 468.74 296.08 466.12 Q 290.42 461.93 292.00 455.00 Q 293.42 448.78 299.83 446.89 Q 310.45 443.76 321.16 446.64 Z"/>
<path fill="rgb(243,247,249)" fill-opacity="1.000" d="M 283.75 487.46 Q 283.49 487.73 283.44 488.09 A 0.37 0.33 -84.2 0 1 283.10 488.41 Q 281.98 488.35 283.19 489.06 Q 283.70 489.37 283.46 490.05 A 1.60 0.69 -61.1 0 0 283.37 490.99 Q 283.91 492.79 285.36 491.12 Q 286.16 490.21 287.51 489.64 A 0.54 0.53 -10.3 0 1 288.25 490.15 Q 288.12 494.64 290.28 491.49 A 1.30 0.88 -69.4 0 1 291.04 490.95 Q 292.08 490.79 292.06 491.81 Q 291.97 496.10 286.94 493.64 Q 285.23 492.80 285.99 494.54 Q 287.29 497.54 290.66 496.46 Q 291.46 496.21 291.88 496.17 Q 294.34 495.91 292.55 497.62 Q 291.91 498.24 291.68 498.60 Q 290.37 500.65 293.12 500.32 A 1.12 1.11 -11.3 0 1 294.32 501.11 Q 295.47 505.11 299.00 504.46 Q 302.33 507.25 308.25 507.25 Q 323.63 507.25 339.34 507.25 A 0.66 0.66 45.0 0 1 340.00 507.91 L 340.00 518.73 A 0.52 0.52 0.0 0 1 339.48 519.25 L 282.29 519.25 A 0.53 0.49 1.0 0 1 281.76 518.74 L 281.96 511.36 Q 282.02 509.23 284.17 508.94 L 291.26 508.00 Q 292.76 507.80 291.41 507.18 Q 286.04 504.73 282.97 499.80 Q 281.06 496.73 280.88 493.91 Q 280.67 490.57 282.56 487.56 Q 283.00 486.87 283.75 487.46 Z"/>
<path fill="rgb(230,234,236)" fill-opacity="1.000" d="M 283.75 487.46 Q 288.19 487.86 292.56 488.69 Q 296.38 489.19 294.56 493.06 Q 293.29 500.23 299.00 504.46 Q 295.47 505.11 294.32 501.11 A 1.12 1.11 -11.3 0 0 293.12 500.32 Q 290.37 500.65 291.68 498.60 Q 291.91 498.24 292.55 497.62 Q 294.34 495.91 291.88 496.17 Q 291.46 496.21 290.66 496.46 Q 287.29 497.54 285.99 494.54 Q 285.23 492.80 286.94 493.64 Q 291.97 496.10 292.06 491.81 Q 292.08 490.79 291.04 490.95 A 1.30 0.88 -69.4 0 0 290.28 491.49 Q 288.12 494.64 288.25 490.15 A 0.54 0.53 -10.3 0 0 287.51 489.64 Q 286.16 490.21 285.36 491.12 Q 283.91 492.79 283.37 490.99 A 1.60 0.69 -61.1 0 1 283.46 490.05 Q 283.70 489.37 283.19 489.06 Q 281.98 488.35 283.10 488.41 A 0.37 0.33 -84.2 0 0 283.44 488.09 Q 283.49 487.73 283.75 487.46 Z"/>
<path fill="rgb(243,247,249)" fill-opacity="1.000" d="M 284.31 527.03 Q 285.78 526.96 287.25 527.00 Q 291.90 526.18 292.40 530.73 Q 292.56 532.25 292.89 533.20 A 0.98 0.98 -14.0 0 0 293.96 533.84 Q 314.07 530.67 318.25 549.50 Q 318.78 551.88 318.12 557.94 A 1.10 1.05 -64.2 0 0 318.40 558.81 Q 322.45 563.22 324.94 557.44 Q 325.46 556.23 325.60 550.75 Q 325.72 546.25 326.53 541.85 Q 327.53 536.36 329.49 533.52 Q 332.49 529.15 337.86 528.47 Q 342.25 527.90 346.96 529.78 Q 354.50 532.79 358.00 540.75 Q 360.09 545.51 360.38 550.70 Q 360.68 556.03 359.61 560.76 Q 358.40 566.14 354.93 570.70 Q 353.54 572.53 351.43 573.44 Q 339.86 578.45 334.37 567.92 A 0.81 0.81 49.5 0 0 333.00 567.81 Q 331.71 569.54 329.95 570.11 Q 321.15 572.96 315.81 565.22 A 0.59 0.58 -43.5 0 0 314.87 565.20 Q 311.75 569.26 307.43 571.17 Q 303.45 572.92 298.36 572.65 Q 289.03 572.14 284.23 564.65 Q 281.10 559.76 280.91 553.84 Q 280.72 548.05 283.33 542.37 Q 283.75 541.46 283.76 540.40 L 283.80 527.56 A 0.54 0.53 -1.7 0 1 284.31 527.03 Z M 337.07 536.05 Q 337.62 538.22 335.97 536.97 A 1.91 1.90 -36.9 0 0 334.12 536.71 Q 330.03 538.34 333.11 540.83 A 1.70 1.61 41.9 0 0 335.31 540.77 L 338.56 537.56 A 2.84 1.39 63.9 0 0 338.56 534.94 Q 337.97 533.44 336.56 533.32 A 0.65 0.63 10.2 0 0 335.88 533.78 Q 335.61 534.78 336.48 535.34 A 1.36 0.88 17.3 0 1 337.07 536.05 Z M 337.81 562.08 Q 342.84 565.96 346.41 563.63 Q 348.98 561.96 350.03 557.37 Q 351.57 550.65 349.06 544.19 Q 348.02 541.51 345.60 540.28 Q 343.17 539.06 340.83 540.07 Q 337.87 541.36 337.47 545.30 Q 336.70 552.73 336.38 558.97 Q 336.28 560.90 337.81 562.08 Z M 309.3726 552.1024 A 7.99 7.99 0 0 0 301.4106 544.0845 L 298.8506 544.0756 A 7.99 7.99 0 0 0 290.8327 552.0377 L 290.8274 553.5776 A 7.99 7.99 0 0 0 298.7894 561.5955 L 301.3494 561.6044 A 7.99 7.99 0 0 0 309.3672 553.6423 L 309.3726 552.1024 Z"/>
<path fill="rgb(230,234,236)" fill-opacity="1.000" d="M 336.56 533.32 Q 337.97 533.44 338.56 534.94 A 2.84 1.39 63.9 0 1 338.56 537.56 L 335.31 540.77 A 1.70 1.61 41.9 0 1 333.11 540.83 Q 330.03 538.34 334.12 536.71 A 1.91 1.90 -36.9 0 1 335.97 536.97 Q 337.62 538.22 337.07 536.05 A 1.36 0.88 17.3 0 0 336.48 535.34 Q 335.61 534.78 335.88 533.78 A 0.65 0.63 10.2 0 1 336.56 533.32 Z"/>
<path fill="rgb(12,39,63)" fill-opacity="1.000" d="M 345.60 540.28 Q 348.02 541.51 349.06 544.19 Q 351.57 550.65 350.03 557.37 Q 348.98 561.96 346.41 563.63 Q 342.84 565.96 337.81 562.08 Q 336.28 560.90 336.38 558.97 Q 336.70 552.73 337.47 545.30 Q 337.87 541.36 340.83 540.07 Q 343.17 539.06 345.60 540.28 Z"/>
<rect fill="rgb(12,40,64)" fill-opacity="1.000" x="-9.27" y="-8.76" width="18.54" height="17.52" rx="7.99" transform="translate(300.10,552.84) rotate(0.2)"/>
<path fill="rgb(243,247,249)" fill-opacity="1.000" d="M 339.26 577.25 A 0.56 0.56 80.4 0 1 340.00 577.78 Q 340.00 582.12 340.02 586.50 Q 340.05 590.43 336.31 591.56 Q 335.90 591.69 320.42 596.78 A 0.71 0.70 -9.1 0 0 319.93 597.45 L 319.81 625.93 A 0.67 0.65 -81.5 0 0 320.28 626.58 Q 337.07 631.82 337.44 632.06 Q 340.25 633.93 340.08 637.24 Q 340.00 638.70 340.00 638.76 Q 340.00 642.27 340.00 645.88 A 0.39 0.39 -80.8 0 1 339.49 646.25 L 258.74 618.75 A 1.11 1.09 9.9 0 1 258.00 617.72 L 258.00 605.57 A 0.90 0.90 -9.6 0 1 258.61 604.72 L 339.26 577.25 Z M 272.99 611.68 L 308.15 622.70 A 0.65 0.64 8.9 0 0 309.00 622.09 L 309.00 600.85 A 0.37 0.37 -9.1 0 0 308.51 600.50 L 273.00 611.51 Q 272.73 611.59 272.99 611.68 Z M 265.40 609.94 Q 266.16 609.48 266.65 610.22 Q 267.00 610.74 266.89 611.47 Q 266.59 613.50 264.50 613.72 A 1.53 1.16 52.9 0 1 263.58 613.46 Q 259.40 610.67 261.68 614.34 Q 262.08 614.98 262.71 615.24 Q 265.04 616.19 266.90 614.89 Q 268.25 613.95 268.64 612.35 Q 269.09 610.51 267.94 609.06 Q 265.47 605.96 263.44 609.19 Q 262.02 611.44 263.94 611.81 Q 265.59 612.14 265.18 610.72 A 0.73 0.57 67.7 0 1 265.40 609.94 Z"/>
<path fill="rgb(12,40,64)" fill-opacity="1.000" d="M 308.51 600.50 A 0.37 0.37 -9.1 0 1 309.00 600.85 L 309.00 622.09 A 0.65 0.64 8.9 0 1 308.15 622.70 L 272.99 611.68 Q 272.73 611.59 273.00 611.51 L 308.51 600.50 Z"/>
<path fill="rgb(230,234,236)" fill-opacity="1.000" d="M 267.94 609.06 Q 269.09 610.51 268.64 612.35 Q 268.25 613.95 266.90 614.89 Q 265.04 616.19 262.71 615.24 Q 262.08 614.98 261.68 614.34 Q 259.40 610.67 263.58 613.46 A 1.53 1.16 52.9 0 0 264.50 613.72 Q 266.59 613.50 266.89 611.47 Q 267.00 610.74 266.65 610.22 Q 266.16 609.48 265.40 609.94 A 0.73 0.57 67.7 0 0 265.18 610.72 Q 265.59 612.14 263.94 611.81 Q 262.02 611.44 263.44 609.19 Q 265.47 605.96 267.94 609.06 Z"/>
<path fill="rgb(255,255,255)" fill-opacity="1.000" d="M 287.45 650.61 Q 311.99 659.29 322.50 663.25 Q 331.76 666.74 336.31 674.62 Q 340.49 681.86 340.25 691.06 Q 340.00 700.71 334.17 709.14 Q 328.94 716.70 319.92 719.02 Q 319.03 719.25 319.90 719.56 Q 334.87 724.91 350.01 730.50 Q 359.70 734.07 363.15 737.02 Q 369.33 742.28 371.29 750.99 Q 374.45 764.98 368.44 776.55 Q 363.77 785.53 356.69 789.19 Q 348.23 793.56 337.79 789.02 Q 337.09 788.72 337.51 789.35 Q 341.79 795.96 342.09 803.76 Q 342.52 814.74 336.75 822.89 Q 331.62 830.13 324.34 832.77 Q 316.27 835.70 307.31 831.62 Q 306.44 831.22 307.01 831.99 Q 311.92 838.59 313.27 846.02 Q 314.56 853.04 313.08 860.96 Q 311.21 870.97 304.15 878.92 Q 298.54 885.25 290.75 886.50 Q 285.99 887.26 280.85 885.29 Q 260.26 877.38 239.76 869.23 Q 235.31 867.45 231.90 864.32 Q 228.67 861.36 226.59 856.95 Q 222.75 848.80 223.25 838.50 Q 224.22 818.38 241.65 808.76 Q 241.99 808.58 241.62 808.46 Q 235.57 806.47 229.55 804.23 Q 221.59 801.27 218.17 798.52 Q 210.21 792.14 208.87 780.99 Q 207.45 769.12 214.19 759.44 Q 219.33 752.06 227.95 749.57 Q 228.43 749.43 227.97 749.28 Q 213.61 744.37 210.56 742.44 Q 202.63 737.40 200.00 729.00 Q 193.88 709.47 206.56 693.31 Q 207.40 692.25 210.47 690.03 Q 212.96 688.23 214.82 687.40 Q 220.25 684.97 225.89 685.90 Q 227.50 686.17 236.18 689.24 Q 243.98 692.01 251.87 694.88 Q 252.50 695.11 252.13 694.54 Q 242.99 680.59 248.56 664.77 Q 252.32 654.11 261.81 649.06 Q 268.23 645.65 275.07 646.65 Q 277.10 646.94 287.45 650.61 Z M 254.21 675.25 Q 252.92 682.20 255.96 688.50 Q 257.11 691.19 259.21 693.25 L 262.75 696.54 Q 269.10 700.29 276.25 702.21 L 281.50 703.96 L 296.25 708.96 Q 303.80 711.82 308.50 713.00 Q 310.27 713.44 313.25 713.21 Q 326.62 711.10 331.21 698.50 Q 334.15 690.42 330.79 682.50 Q 327.98 674.86 320.50 671.71 L 315.75 669.79 L 303.25 665.54 L 296.75 663.29 L 290.75 661.29 Q 283.95 658.47 276.75 656.96 Q 268.71 656.00 262.42 660.92 Q 255.43 666.39 254.21 675.25 Z M 209.79 722.00 Q 210.49 726.86 213.46 730.75 Q 215.48 734.18 219.00 736.04 Q 224.88 739.11 231.25 740.96 L 243.71 745.50 L 249.00 747.46 L 261.21 752.00 L 269.25 754.96 L 277.50 757.96 L 290.00 762.46 L 300.75 766.46 Q 318.25 772.84 335.75 779.25 Q 349.41 782.83 358.06 772.08 Q 365.11 763.31 362.56 752.94 Q 360.25 743.49 352.25 739.25 Q 348.61 737.32 341.75 735.21 L 330.29 731.00 L 318.00 726.54 L 309.54 723.50 L 302.79 721.00 L 288.75 715.79 L 283.25 713.79 L 271.29 709.50 L 260.50 705.46 L 250.75 701.96 L 241.25 698.54 Q 235.25 695.76 231.75 695.75 Q 217.96 695.71 211.81 707.56 Q 208.32 714.29 209.79 722.00 Z M 220.00 784.54 Q 220.53 787.50 222.21 790.00 Q 224.13 793.65 227.50 795.96 Q 234.75 800.07 242.75 802.46 L 254.71 806.75 Q 298.17 822.98 304.31 824.94 Q 314.97 828.33 323.21 822.44 Q 326.69 819.95 328.97 816.30 Q 331.35 812.51 332.00 808.25 Q 334.42 792.49 320.69 784.81 Q 317.69 783.13 294.04 775.00 L 282.75 770.79 L 268.00 765.46 L 258.50 761.96 L 253.50 760.21 Q 248.17 757.86 244.50 757.00 Q 236.37 755.10 229.26 760.04 Q 216.43 768.97 220.00 784.54 Z M 256.44 867.31 Q 265.94 870.99 275.48 874.56 Q 281.53 876.83 284.77 877.01 Q 290.07 877.31 294.44 874.94 Q 301.60 871.04 305.19 862.19 Q 309.21 852.26 304.31 841.94 Q 302.53 838.18 299.91 835.64 Q 297.91 833.69 293.43 831.88 Q 274.90 824.39 256.04 817.75 Q 250.44 815.79 248.25 816.25 Q 230.25 820.05 228.50 838.25 Q 227.11 852.63 239.06 860.44 Q 241.99 862.35 256.44 867.31 Z M 332.51 817.05 Q 331.94 816.45 331.35 816.90 A 0.55 0.45 52.3 0 0 331.33 817.63 Q 333.30 820.14 330.16 822.11 A 4.41 4.39 87.4 0 0 328.58 823.85 Q 328.05 824.89 328.76 825.16 A 0.99 0.69 -50.2 0 0 329.63 824.92 Q 333.44 821.63 333.94 820.69 Q 334.93 818.81 333.25 817.69 Q 332.92 817.47 332.51 817.05 Z"/>
<path fill="rgb(29,248,135)" fill-opacity="1.000" d="M 276.75 656.96 Q 276.74 657.83 276.49 658.64 Q 276.27 659.37 275.54 659.98 Q 265.93 667.91 255.72 675.03 Q 255.48 675.19 255.11 675.78 Q 254.74 676.37 254.21 675.25 Q 255.43 666.39 262.42 660.92 Q 268.71 656.00 276.75 656.96 Z"/>
<path fill="rgb(46,243,126)" fill-opacity="1.000" d="M 276.75 656.96 Q 283.95 658.47 290.75 661.29 Q 290.78 662.54 289.93 662.69 Q 289.33 662.79 289.05 663.00 L 255.96 688.50 Q 252.92 682.20 254.21 675.25 Q 254.74 676.37 255.11 675.78 Q 255.48 675.19 255.72 675.03 Q 265.93 667.91 275.54 659.98 Q 276.27 659.37 276.49 658.64 Q 276.74 657.83 276.75 656.96 Z"/>
<path fill="rgb(62,239,117)" fill-opacity="1.000" d="M 290.75 661.29 L 296.75 663.29 Q 296.36 665.59 294.31 667.06 Q 291.39 669.17 266.31 688.56 Q 262.12 691.80 259.21 693.25 Q 257.11 691.19 255.96 688.50 L 289.05 663.00 Q 289.33 662.79 289.93 662.69 Q 290.78 662.54 290.75 661.29 Z"/>
<path fill="rgb(70,237,113)" fill-opacity="1.000" d="M 296.75 663.29 L 303.25 665.54 Q 283.43 681.60 262.75 696.54 L 259.21 693.25 Q 262.12 691.80 266.31 688.56 Q 291.39 669.17 294.31 667.06 Q 296.36 665.59 296.75 663.29 Z"/>
<path fill="rgb(88,233,102)" fill-opacity="1.000" d="M 303.25 665.54 L 315.75 669.79 Q 314.40 671.20 313.25 672.75 Q 277.95 700.14 277.56 700.31 Q 276.34 700.86 276.25 702.21 Q 269.10 700.29 262.75 696.54 Q 283.43 681.60 303.25 665.54 Z"/>
<path fill="rgb(103,229,93)" fill-opacity="1.000" d="M 315.75 669.79 L 320.50 671.71 Q 318.21 675.06 314.81 677.31 Q 314.36 677.61 289.58 696.78 Q 289.52 696.82 286.30 699.04 Q 283.43 701.01 281.50 703.96 L 276.25 702.21 Q 276.34 700.86 277.56 700.31 Q 277.95 700.14 313.25 672.75 Q 314.40 671.20 315.75 669.79 Z"/>
<path fill="rgb(121,224,83)" fill-opacity="1.000" d="M 320.50 671.71 Q 327.98 674.86 330.79 682.50 Q 330.30 683.62 329.49 683.31 A 0.94 0.68 31.8 0 0 328.67 683.37 Q 307.86 699.47 304.19 702.19 Q 299.57 705.60 296.25 708.96 L 281.50 703.96 Q 283.43 701.01 286.30 699.04 Q 289.52 696.82 289.58 696.78 Q 314.36 677.61 314.81 677.31 Q 318.21 675.06 320.50 671.71 Z"/>
<path fill="rgb(146,218,69)" fill-opacity="1.000" d="M 330.79 682.50 Q 334.15 690.42 331.21 698.50 Q 329.89 698.13 328.94 699.19 Q 328.61 699.55 316.39 708.63 Q 314.17 710.28 312.75 712.62 A 0.29 0.23 24.2 0 0 312.94 712.98 Q 313.12 713.05 313.25 713.21 Q 310.27 713.44 308.50 713.00 Q 303.80 711.82 296.25 708.96 Q 299.57 705.60 304.19 702.19 Q 307.86 699.47 328.67 683.37 A 0.94 0.68 31.8 0 1 329.49 683.31 Q 330.30 683.62 330.79 682.50 Z"/>
<path fill="rgb(50,242,124)" fill-opacity="1.000" d="M 231.75 695.75 Q 235.25 695.76 241.25 698.54 Q 239.77 701.37 236.44 703.44 Q 232.25 706.04 219.69 715.68 Q 215.40 718.98 210.81 721.81 Q 210.44 722.65 209.79 722.00 Q 208.32 714.29 211.81 707.56 Q 217.96 695.71 231.75 695.75 Z"/>
<path fill="rgb(165,213,58)" fill-opacity="1.000" d="M 331.21 698.50 Q 326.62 711.10 313.25 713.21 Q 313.12 713.05 312.94 712.98 A 0.29 0.23 24.2 0 1 312.75 712.62 Q 314.17 710.28 316.39 708.63 Q 328.61 699.55 328.94 699.19 Q 329.89 698.13 331.21 698.50 Z"/>
<path fill="rgb(70,237,113)" fill-opacity="1.000" d="M 241.25 698.54 L 250.75 701.96 Q 249.28 702.55 248.62 703.98 Q 248.40 704.47 248.04 704.73 Q 227.00 720.50 226.25 721.00 Q 219.55 725.48 213.46 730.75 Q 210.49 726.86 209.79 722.00 Q 210.44 722.65 210.81 721.81 Q 215.40 718.98 219.69 715.68 Q 232.25 706.04 236.44 703.44 Q 239.77 701.37 241.25 698.54 Z"/>
<path fill="rgb(85,233,104)" fill-opacity="1.000" d="M 250.75 701.96 L 260.50 705.46 Q 240.06 721.17 219.00 736.04 Q 215.48 734.18 213.46 730.75 Q 219.55 725.48 226.25 721.00 Q 227.00 720.50 248.04 704.73 Q 248.40 704.47 248.62 703.98 Q 249.28 702.55 250.75 701.96 Z"/>
<path fill="rgb(103,229,93)" fill-opacity="1.000" d="M 260.50 705.46 L 271.29 709.50 Q 270.37 710.84 269.44 712.19 Q 258.06 720.68 246.69 729.19 Q 233.48 739.06 231.25 740.96 Q 224.88 739.11 219.00 736.04 Q 240.06 721.17 260.50 705.46 Z"/>
<path fill="rgb(124,223,81)" fill-opacity="1.000" d="M 271.29 709.50 L 283.25 713.79 Q 282.73 715.61 281.81 716.31 Q 272.89 723.16 246.81 742.31 Q 244.79 743.80 243.71 745.50 L 231.25 740.96 Q 233.48 739.06 246.69 729.19 Q 258.06 720.68 269.44 712.19 Q 270.37 710.84 271.29 709.50 Z"/>
<path fill="rgb(139,220,73)" fill-opacity="1.000" d="M 283.25 713.79 L 288.75 715.79 Q 287.57 718.16 285.25 719.50 Q 284.65 719.85 275.02 727.03 Q 275.01 727.04 273.72 728.25 Q 272.89 729.03 271.31 729.81 Q 269.39 730.76 249.97 745.75 Q 249.53 746.09 249.34 746.50 Q 249.14 746.96 249.00 747.46 L 243.71 745.50 Q 244.79 743.80 246.81 742.31 Q 272.89 723.16 281.81 716.31 Q 282.73 715.61 283.25 713.79 Z"/>
<path fill="rgb(155,216,64)" fill-opacity="1.000" d="M 288.75 715.79 L 302.79 721.00 Q 301.75 721.21 301.25 721.75 Q 298.51 724.74 294.94 726.69 Q 285.40 734.44 275.56 741.81 Q 269.02 746.30 262.82 751.25 A 1.29 0.71 17.1 0 1 261.95 751.43 Q 261.35 751.37 261.21 752.00 L 249.00 747.46 Q 249.14 746.96 249.34 746.50 Q 249.53 746.09 249.97 745.75 Q 269.39 730.76 271.31 729.81 Q 272.89 729.03 273.72 728.25 Q 275.01 727.04 275.02 727.03 Q 284.65 719.85 285.25 719.50 Q 287.57 718.16 288.75 715.79 Z"/>
<path fill="rgb(173,211,54)" fill-opacity="1.000" d="M 302.79 721.00 L 309.54 723.50 L 309.05 723.56 A 1.24 0.76 -67.2 0 0 308.30 724.10 Q 307.23 725.64 305.19 726.94 Q 302.38 728.72 270.06 753.06 Q 268.95 753.90 269.25 754.96 L 261.21 752.00 Q 261.35 751.37 261.95 751.43 A 1.29 0.71 17.1 0 0 262.82 751.25 Q 269.02 746.30 275.56 741.81 Q 285.40 734.44 294.94 726.69 Q 298.51 724.74 301.25 721.75 Q 301.75 721.21 302.79 721.00 Z"/>
<path fill="rgb(186,208,46)" fill-opacity="1.000" d="M 309.54 723.50 L 318.00 726.54 Q 318.18 727.30 317.67 727.56 Q 316.91 727.95 316.82 728.03 Q 312.45 732.13 307.44 735.44 Q 307.13 735.64 279.06 756.31 Q 277.75 757.28 277.50 757.96 L 269.25 754.96 Q 268.95 753.90 270.06 753.06 Q 302.38 728.72 305.19 726.94 Q 307.23 725.64 308.30 724.10 A 1.24 0.76 -67.2 0 1 309.05 723.56 L 309.54 723.50 Z"/>
<path fill="rgb(205,203,35)" fill-opacity="1.000" d="M 318.00 726.54 L 330.29 731.00 Q 328.85 732.08 327.81 733.56 Q 309.51 747.29 291.02 760.76 Q 290.12 761.41 290.00 762.46 L 277.50 757.96 Q 277.75 757.28 279.06 756.31 Q 307.13 735.64 307.44 735.44 Q 312.45 732.13 316.82 728.03 Q 316.91 727.95 317.67 727.56 Q 318.18 727.30 318.00 726.54 Z"/>
<path fill="rgb(225,198,24)" fill-opacity="1.000" d="M 330.29 731.00 L 341.75 735.21 L 303.46 763.77 Q 303.12 764.03 302.57 764.10 Q 300.59 764.35 300.75 766.46 L 290.00 762.46 Q 290.12 761.41 291.02 760.76 Q 309.51 747.29 327.81 733.56 Q 328.85 732.08 330.29 731.00 Z"/>
<path fill="rgb(255,190,7)" fill-opacity="1.000" d="M 341.75 735.21 Q 348.61 737.32 352.25 739.25 Q 360.25 743.49 362.56 752.94 Q 365.11 763.31 358.06 772.08 Q 349.41 782.83 335.75 779.25 Q 318.25 772.84 300.75 766.46 Q 300.59 764.35 302.57 764.10 Q 303.12 764.03 303.46 763.77 L 341.75 735.21 Z"/>
<path fill="rgb(165,213,58)" fill-opacity="1.000" d="M 244.50 757.00 Q 248.17 757.86 253.50 760.21 Q 252.53 760.21 252.92 760.60 A 0.29 0.25 49.9 0 1 252.91 761.01 Q 238.12 771.50 235.56 773.56 Q 228.13 779.55 220.00 784.54 Q 216.43 768.97 229.26 760.04 Q 236.37 755.10 244.50 757.00 Z"/>
<path fill="rgb(181,209,49)" fill-opacity="1.000" d="M 253.50 760.21 L 258.50 761.96 Q 241.31 775.24 223.69 787.94 Q 222.69 788.78 222.21 790.00 Q 220.53 787.50 220.00 784.54 Q 228.13 779.55 235.56 773.56 Q 238.12 771.50 252.91 761.01 A 0.29 0.25 49.9 0 0 252.92 760.60 Q 252.53 760.21 253.50 760.21 Z"/>
<path fill="rgb(194,206,42)" fill-opacity="1.000" d="M 258.50 761.96 L 268.00 765.46 Q 266.90 765.82 266.16 766.68 Q 265.07 767.94 264.71 768.22 Q 252.55 777.62 240.00 786.50 Q 236.72 788.82 227.50 795.96 Q 224.13 793.65 222.21 790.00 Q 222.69 788.78 223.69 787.94 Q 241.31 775.24 258.50 761.96 Z"/>
<path fill="rgb(215,200,30)" fill-opacity="1.000" d="M 268.00 765.46 L 282.75 770.79 Q 282.20 770.75 281.81 771.19 Q 280.07 773.19 277.07 775.33 Q 263.12 785.31 249.49 795.72 Q 249.45 795.75 246.51 797.73 Q 244.29 799.22 242.71 801.44 A 0.90 0.32 73.4 0 0 242.68 802.09 L 242.75 802.46 Q 234.75 800.07 227.50 795.96 Q 236.72 788.82 240.00 786.50 Q 252.55 777.62 264.71 768.22 Q 265.07 767.94 266.16 766.68 Q 266.90 765.82 268.00 765.46 Z"/>
<path fill="rgb(239,194,16)" fill-opacity="1.000" d="M 282.75 770.79 L 294.04 775.00 Q 292.79 775.57 292.38 776.77 A 0.99 0.79 38.5 0 0 292.58 777.63 Q 295.77 781.47 291.13 784.08 Q 288.71 785.43 286.62 783.50 A 0.93 0.92 47.6 0 0 285.44 783.44 Q 270.79 794.43 256.06 805.31 Q 255.48 805.74 254.71 806.75 L 242.75 802.46 L 242.68 802.09 A 0.90 0.32 73.4 0 1 242.71 801.44 Q 244.29 799.22 246.51 797.73 Q 249.45 795.75 249.49 795.72 Q 263.12 785.31 277.07 775.33 Q 280.07 773.19 281.81 771.19 Q 282.20 770.75 282.75 770.79 Z"/>
<path fill="rgb(255,190,7)" fill-opacity="1.000" d="M 294.04 775.00 Q 317.69 783.13 320.69 784.81 Q 334.42 792.49 332.00 808.25 Q 331.35 812.51 328.97 816.30 Q 326.69 819.95 323.21 822.44 Q 314.97 828.33 304.31 824.94 Q 298.17 822.98 254.71 806.75 Q 255.48 805.74 256.06 805.31 Q 270.79 794.43 285.44 783.44 A 0.93 0.92 47.6 0 1 286.62 783.50 Q 288.71 785.43 291.13 784.08 Q 295.77 781.47 292.58 777.63 A 0.99 0.79 38.5 0 1 292.38 776.77 Q 292.79 775.57 294.04 775.00 Z M 291.69 787.19 Q 291.09 788.45 292.23 788.29 Q 292.64 788.23 293.06 787.88 Q 295.12 786.17 296.94 784.19 Q 298.51 782.85 296.98 782.37 A 0.96 0.82 -53.8 0 0 296.12 782.57 Q 292.34 785.81 291.69 787.19 Z M 300.40 787.51 Q 301.66 790.03 302.36 787.97 A 0.87 0.74 -60.9 0 0 302.19 787.11 L 300.34 785.35 A 1.27 0.93 -20.1 0 0 299.44 785.09 Q 295.88 785.41 297.31 789.07 Q 298.39 791.83 295.50 789.79 Q 294.34 788.97 294.56 790.37 Q 294.69 791.21 295.39 791.90 Q 295.98 792.47 296.90 792.60 Q 300.42 793.09 299.25 789.25 Q 298.69 787.42 299.70 787.12 A 0.69 0.54 67.3 0 1 300.40 787.51 Z M 305.22 792.25 A 0.91 0.90 12.9 0 1 303.96 793.04 Q 300.84 791.69 302.25 793.76 Q 302.59 794.26 302.62 794.72 Q 302.73 796.52 301.41 795.29 Q 300.92 794.83 300.67 794.66 Q 298.61 793.29 299.81 795.69 Q 300.34 796.75 301.98 797.49 A 0.85 0.70 33.7 0 0 302.85 797.40 L 307.20 793.15 A 1.00 0.81 63.0 0 0 307.39 792.25 Q 306.91 790.57 305.35 789.63 Q 303.69 788.62 303.85 790.06 A 1.33 0.91 23.6 0 0 304.35 790.86 Q 305.26 791.56 305.22 792.25 Z M 320.56 808.02 Q 322.17 807.99 322.14 809.55 Q 322.12 810.50 321.36 811.21 Q 319.44 813.01 317.32 811.07 Q 316.92 810.70 316.58 810.59 Q 315.36 810.20 315.94 811.56 Q 316.96 813.98 319.16 814.00 Q 320.84 814.01 322.37 812.59 Q 325.53 809.66 321.70 806.53 A 1.88 1.86 -42.2 0 0 319.47 806.43 Q 317.30 807.90 318.40 809.27 Q 318.80 809.77 319.36 809.88 Q 320.33 810.07 320.15 808.56 A 0.48 0.43 85.3 0 1 320.56 808.02 Z"/>
<path fill="rgb(241,180,7)" fill-opacity="1.000" d="M 296.98 782.37 Q 298.51 782.85 296.94 784.19 Q 295.12 786.17 293.06 787.88 Q 292.64 788.23 292.23 788.29 Q 291.09 788.45 291.69 787.19 Q 292.34 785.81 296.12 782.57 A 0.96 0.82 -53.8 0 1 296.98 782.37 Z"/>
<path fill="rgb(241,180,7)" fill-opacity="1.000" d="M 300.34 785.35 L 302.19 787.11 A 0.87 0.74 -60.9 0 1 302.36 787.97 Q 301.66 790.03 300.40 787.51 A 0.69 0.54 67.3 0 0 299.70 787.12 Q 298.69 787.42 299.25 789.25 Q 300.42 793.09 296.90 792.60 Q 295.98 792.47 295.39 791.90 Q 294.69 791.21 294.56 790.37 Q 294.34 788.97 295.50 789.79 Q 298.39 791.83 297.31 789.07 Q 295.88 785.41 299.44 785.09 A 1.27 0.93 -20.1 0 1 300.34 785.35 Z"/>
<path fill="rgb(241,180,7)" fill-opacity="1.000" d="M 305.35 789.63 Q 306.91 790.57 307.39 792.25 A 1.00 0.81 63.0 0 1 307.20 793.15 L 302.85 797.40 A 0.85 0.70 33.7 0 1 301.98 797.49 Q 300.34 796.75 299.81 795.69 Q 298.61 793.29 300.67 794.66 Q 300.92 794.83 301.41 795.29 Q 302.73 796.52 302.62 794.72 Q 302.59 794.26 302.25 793.76 Q 300.84 791.69 303.96 793.04 A 0.91 0.90 12.9 0 0 305.22 792.25 Q 305.26 791.56 304.35 790.86 A 1.33 0.91 23.6 0 1 303.85 790.06 Q 303.69 788.62 305.35 789.63 Z"/>
<path fill="rgb(241,180,7)" fill-opacity="1.000" d="M 321.70 806.53 Q 325.53 809.66 322.37 812.59 Q 320.84 814.01 319.16 814.00 Q 316.96 813.98 315.94 811.56 Q 315.36 810.20 316.58 810.59 Q 316.92 810.70 317.32 811.07 Q 319.44 813.01 321.36 811.21 Q 322.12 810.50 322.14 809.55 Q 322.17 807.99 320.56 808.02 A 0.48 0.43 85.3 0 0 320.15 808.56 Q 320.33 810.07 319.36 809.88 Q 318.80 809.77 318.40 809.27 Q 317.30 807.90 319.47 806.43 A 1.88 1.86 -42.2 0 1 321.70 806.53 Z"/>
<path fill="rgb(255,190,7)" fill-opacity="1.000" d="M 248.25 816.25 Q 250.44 815.79 256.04 817.75 Q 274.90 824.39 293.43 831.88 Q 297.91 833.69 299.91 835.64 Q 302.53 838.18 304.31 841.94 Q 309.21 852.26 305.19 862.19 Q 301.60 871.04 294.44 874.94 Q 290.07 877.31 284.77 877.01 Q 281.53 876.83 275.48 874.56 Q 265.94 870.99 256.44 867.31 Q 241.99 862.35 239.06 860.44 Q 227.11 852.63 228.50 838.25 Q 230.25 820.05 248.25 816.25 Z"/>
<path fill="rgb(243,247,249)" fill-opacity="1.000" d="M 333.25 817.69 Q 334.93 818.81 333.94 820.69 Q 333.44 821.63 329.63 824.92 A 0.99 0.69 -50.2 0 1 328.76 825.16 Q 328.05 824.89 328.58 823.85 A 4.41 4.39 87.4 0 1 330.16 822.11 Q 333.30 820.14 331.33 817.63 A 0.55 0.45 52.3 0 1 331.35 816.90 Q 331.94 816.45 332.51 817.05 Q 332.92 817.47 333.25 817.69 Z"/>
</svg>